<svg xmlns="http://www.w3.org/2000/svg" width="1024" height="1024" viewBox="0 0 1024 1024">
  <title>MealPlanner app icon — dark appearance (transparent background by design)</title>
  <circle cx="512" cy="512" r="318" fill="rgba(255,255,255,.10)" stroke="rgba(255,255,255,.22)" stroke-width="6"></circle><circle cx="512" cy="512" r="256" fill="#82BA51"></circle><circle cx="512" cy="512" r="202" fill="#EFE9DA"></circle><g fill="none" stroke="#FECA00" stroke-width="32" stroke-linecap="round" stroke-linejoin="round"><path d="M372 415 L 399 442 L 445 383"></path><path d="M372 512 L 399 539 L 445 480"></path><path d="M372 609 L 399 636 L 445 577"></path></g><g fill="#82BA51"><rect x="496" y="399" width="162" height="32" rx="16"></rect><rect x="496" y="496" width="162" height="32" rx="16"></rect><rect x="496" y="593" width="162" height="32" rx="16"></rect><rect x="99" y="281" width="26" height="141" rx="13"></rect><rect x="127" y="281" width="26" height="141" rx="13"></rect><rect x="155" y="281" width="26" height="141" rx="13"></rect><rect x="117" y="375" width="46" height="368" rx="23"></rect><rect x="858" y="281" width="53" height="243" rx="27"></rect><rect x="864" y="487" width="41" height="256" rx="20"></rect></g>
</svg>