<svg xmlns="http://www.w3.org/2000/svg" width="1024" height="1024" viewBox="0 0 1024 1024">
  <title>Riverly app icon — tinted appearance</title>
  <rect width="1024" height="1024" fill="#000000"></rect>
  <defs><clipPath id="t-fx1"><circle cx="512" cy="512" r="376"></circle></clipPath></defs><circle cx="512" cy="512" r="404" fill="rgba(255,255,255,.13)" stroke="rgba(255,255,255,.26)" stroke-width="5"></circle><circle cx="512" cy="512" r="376" fill="#8E8E8E"></circle><g clip-path="url(#t-fx1)"><g transform="translate(512 512) scale(1.0562) translate(-512 -512)"><g transform="rotate(-30 512 512)"><path d="M100 930 C 320 830 200 700 512 512 C 824 324 700 190 930 100" fill="none" stroke="#D2D2D2" stroke-width="186" stroke-linejoin="round" stroke-linecap="butt"></path></g><path d="M592 366 C 700 348 782 302 852 240 C 892 204 922 174 952 144" fill="none" stroke="#D2D2D2" stroke-width="86" stroke-linejoin="round" stroke-linecap="round"></path><g transform="rotate(29 512 512)"><g transform="rotate(-20 512 684)" fill="none" stroke="#8E8E8E" stroke-width="14" stroke-linecap="round" opacity=".55"><path d="M468 726 C 490 750 534 750 556 726"></path><path d="M480 772 C 498 792 526 792 544 772"></path></g><path d="M512 340 C 556 408 582 472 582 558 L 582 632 Q 582 684 524 684 L 500 684 Q 442 684 442 632 L 442 558 C 442 472 468 408 512 340 Z" fill="#FFFFFF"></path><rect x="464" y="474" width="96" height="24" rx="12" fill="#454545"></rect><rect x="448" y="576" width="128" height="24" rx="12" fill="#454545"></rect></g></g></g>
</svg>